<?xml version="1.0" standalone="no"?>
<!DOCTYPE svg PUBLIC "-//W3C//DTD SVG 1.1//EN" "http://www.w3.org/Graphics/SVG/1.1/DTD/svg11.dtd">
<svg xmlns="http://www.w3.org/2000/svg" width="500" height="507" viewBox="0 0 500 507" fill="none">
<path d="M326.183 294.04C321.247 291.435 316.585 288.937 312.518 284.9C310.355 282.752 305.907 284.321 303.469 286.164C270.428 311.163 229.602 288.724 244.424 246.831C245.566 243.587 243.784 239.991 240.463 239.123C235.025 237.676 229.632 235.513 224.696 232.771C221.223 230.851 216.943 232.755 216.013 236.594C212.388 251.462 205.319 262.263 196.697 265.782C196.682 265.782 196.667 265.782 196.667 265.782C191.792 267.823 186.171 267.168 181.54 264.731C170.191 258.104 164.661 246.146 164.28 223.844C164.219 220.081 161.706 217.08 157.958 217.354C146.579 218.162 142.069 217.111 134.072 218.086V218.116C141.612 235.467 141.81 264.198 135.869 283.179C127.994 313.615 112.608 372.828 104.534 396.593C103.925 398.405 104.184 400.416 105.326 401.955C120.925 422.81 216.866 462.326 243.754 459.035C245.795 458.791 250.258 458.106 251.081 456.232C252.224 453.642 254.036 450.916 256.001 446.528C258.622 444.731 259.932 438.835 260.617 433.854C274.906 402.183 298.122 351.76 314.468 323.532L315.245 322.405L316.037 321.324C319.023 315.763 321.521 310.173 326.761 306.075C330.082 303.485 329.884 296.005 326.167 294.04H326.183Z" fill="#006738"/>
<path d="M103.452 399.732H103.498C103.574 399.579 103.604 399.412 103.604 399.29C103.544 399.442 103.513 399.579 103.452 399.732Z" fill="#006738"/>
<path d="M189.89 256.279C191.261 256.264 192.526 256.248 193.881 256.233C202.519 252.729 208.688 235.043 209.633 222.872C209.755 221.287 210.029 219.246 209.008 218.012C204.804 212.924 200.858 206.252 198.284 200.234C196.425 195.908 188.55 194.232 185.899 198.117C184.025 200.859 181.862 203.86 179.455 206.175C178.389 207.196 177.46 210.167 177.323 211.644C175.068 237.511 180.217 253.049 189.875 256.279H189.89Z" fill="#006738"/>
<path d="M295.869 278.548C296.737 277.969 297.545 277.39 298.337 276.735C298.337 276.735 298.367 276.72 298.382 276.704C300.53 275.075 302.511 272.013 301.414 269.545C297.423 260.587 295.899 250.929 296.631 241.53C296.981 237.021 291.238 231.552 287.11 233.411C279.904 236.655 271.785 239.504 263.833 240.113C261.761 240.266 258.745 242.368 257.739 244.181C240.906 274.587 267.458 297.849 295.869 278.548Z" fill="#006738"/>
<path d="M458.717 212.252L458.61 210.82L458.077 210.149C512.72 154.318 468.679 57.6308 390.546 58.3316C368.671 58.5449 348.471 67.228 331.821 81.1515C331.12 81.7456 329.947 82.9948 329.048 83.6803C325.59 86.27 325.179 84.1982 324.28 79.9785C308.788 6.27844 214.781 -21.4162 162.911 38.3451C149.581 54.447 143.183 71.3563 143.275 91.2818C143.29 95.1207 141.767 96.4308 138.05 95.532C136.694 95.1968 135.612 93.9325 134.409 93.6278C73.9468 80.5117 11.0473 133.007 13.3628 195.053C13.8808 247.868 68.1428 296.234 121.826 293.873C124.477 293.751 127.462 292.045 128.102 289.471C131.499 275.7 132.794 271.023 133.708 256.444C134.226 243.541 131.454 231.674 127.523 222.534C127.447 222.352 126.883 220.356 126.792 220.173C120.303 207.575 114.636 212.602 113.524 203.066C113.524 195.175 119.449 197.978 124.72 203.797C128.605 208.916 133.343 209.464 141.767 209.814C163.992 211.718 187.528 197.643 191.733 170.771C192.373 166.292 191.565 162.91 195.922 164.723C198.938 165.957 200.827 163.992 200.37 167.236C196.821 193.194 209.084 214.323 236.352 225.52C265.6 237.524 294.438 223.844 306.899 205.199C309.153 201.786 309.945 201.497 313.525 202.959C318.964 205.107 320.578 208.108 316.404 212.236C301.415 227.592 301.232 252.834 313.693 271.358C323.854 286.5 340.169 293.172 356.408 290.537C363.842 289.334 368.397 295.945 365.533 302.937C364.055 307.751 360.155 308.726 355.159 307.69C346.811 306.014 335.279 310.021 327.814 317.927C327.601 318.156 326.58 319.298 326.398 319.557C324.174 322.665 322.513 326.747 320.228 330.342C318.948 332.368 318.019 336.558 319.36 338.538C325.514 347.511 334.609 356.62 340.611 361.556C378.801 393.227 444.915 382.792 473.828 342.971C504.707 303.958 499.009 241.485 458.762 212.236L458.717 212.252Z" fill="#006738"/>
<path d="M311.043 282.507C308.88 280.36 304.035 283.315 301.4 284.869C279.57 297.726 243.33 297.909 247.351 243.037C248.067 233.333 226.862 233.349 221.911 230.607C218.438 228.687 215.208 231.978 213.776 235.679C198.588 275.15 187.757 260.434 179.973 256.275C168.38 250.09 173.179 229.769 167.588 219.745C164.161 213.606 141.31 216.439 132.079 217.948V217.978C139.619 235.329 139.817 264.06 133.876 283.041C126 313.477 110.615 372.69 102.541 396.455C101.931 398.267 102.19 400.278 103.333 401.817C118.932 422.672 185.945 445.568 211.903 437.829C248.996 426.769 280.484 337.592 295.748 315.717C307.92 298.274 315.08 286.544 311.028 282.523L311.043 282.507Z" fill="#9BC983"/>
<path d="M103.451 399.73H103.497C103.573 399.578 103.604 399.41 103.604 399.288C103.543 399.44 103.512 399.578 103.451 399.73Z" fill="#9BC983"/>
<path d="M457.91 211.535L457.255 210.956L458.092 210.149C513.086 153.968 470.599 58.651 391.979 59.3518C369.966 59.5651 349.919 68.4767 333.162 82.4916C332.461 83.0857 331.593 83.756 330.679 84.4415C327.205 87.0464 322.148 85.2032 321.249 80.953C305.65 6.81117 217.569 -22.7267 165.379 37.4002C151.958 53.5935 144.631 70.2133 144.722 90.2455C144.738 94.1148 141.082 96.933 137.334 96.0343C135.963 95.6991 134.607 95.364 133.389 95.0745C72.5609 81.8823 12.5254 132.138 14.8409 194.565C6.7366 248.477 60.0237 299.601 106.09 278.944C116.982 274.054 126.564 251.31 118.795 229.161C114.072 215.709 106.791 213.896 101.048 203.385C97.2393 196.424 110.234 178.067 121.065 185.471C130.037 191.61 141.249 201.923 149.704 201.1C176.393 198.511 180.11 164.905 182.075 154.501C184.756 140.364 201.97 136.388 208.841 148.864C215.498 160.96 212.207 194.245 251.86 211.688C275.03 221.879 288.817 198.069 307.798 185.867C314.348 181.647 327.327 183.414 334.122 189.949C340.459 196.043 340.779 207.422 336.544 219.03C330.922 234.431 322.514 248.522 335.782 266.635C345.912 280.452 361.892 279.69 370.606 280.696C378.131 281.564 390.973 286.363 392.558 299.067C394.111 311.65 380.264 321.049 362.045 320.928C328.089 320.684 348.136 349.948 381.315 355.919C405.674 360.291 446.652 348.592 465.389 322.405C485.97 293.644 493.495 252.727 457.894 211.551L457.91 211.535Z" fill="#9BC983"/>
<path d="M191.505 290.064C187.209 289.333 181.725 287.49 178.861 291.42C175.998 295.35 167.741 304.247 167.802 308.969C167.863 313.691 166.065 320.318 169.234 322.969C172.402 325.619 181.421 330.601 184.33 327.813C187.24 325.04 193.653 318.246 194.247 314.133C194.841 310.02 200.706 303.195 198.65 298.412C196.593 293.629 191.521 290.049 191.521 290.049L191.505 290.064Z" fill="white"/>
<path d="M264.613 320.516C260.424 319.358 255.153 316.967 251.893 320.577C248.633 324.187 239.524 332.215 239.112 336.907C238.701 341.599 236.218 348.028 239.112 350.983C241.991 353.938 250.461 359.803 253.645 357.336C256.829 354.868 263.897 348.759 264.903 344.737C265.908 340.716 272.443 334.516 270.874 329.55C269.305 324.583 264.629 320.516 264.629 320.516H264.613Z" fill="white"/>
<path d="M471.178 212.861C469.228 210.85 468.999 207.742 470.629 205.457C497.623 167.617 492.566 111.146 458.199 79.1707C426.224 46.9669 372.144 42.8081 335.233 68.1873C332.08 70.3504 327.677 68.9794 326.383 65.369C292.351 -29.5666 154.563 -18.6594 137.258 82.2631C136.725 85.3403 133.876 87.4577 130.783 87.0617C85.951 81.4252 40.8444 103.331 22.2442 143.121C15.6632 156.923 7.57422 181.632 9.37178 200.217C12.0224 256.55 59.1246 302.023 115.337 302.541C119.008 302.571 121.628 306.029 120.897 309.579C120.897 309.579 116.936 324.98 112.107 342.94C80.0556 334.653 57.7079 324.523 35.9544 308.482C35.9239 308.451 35.8934 308.421 35.8782 308.406C35.6192 306.364 33.517 302.982 30.3332 299.753C26.1135 295.472 21.5739 293.111 20.2181 294.452C19.5021 295.168 19.822 296.782 20.9036 298.778C11.1236 294.802 2.19676 294.619 0.338266 298.595C-1.65733 302.891 5.38058 310.401 16.0746 315.383C22.3965 318.323 28.5509 319.709 32.9534 319.465C54.8135 334.958 77.5268 345.012 109.304 353.238C104.368 371.214 99.1585 389.326 96.4774 395.694C96.188 396.364 95.9747 397.065 96.0052 397.796C96.2337 404.057 104.094 412.131 116.251 420.54C103.226 433.153 86.5299 451.297 85.3112 462.463C84.8085 467.018 86.5756 473.477 88.6321 480.972C89.5613 484.353 90.5515 488.01 91.1761 491.071C88.6626 491.011 85.8901 491.209 82.9957 491.711C72.9415 493.463 65.3552 498.155 66.0712 502.192C66.7719 506.229 75.4855 508.087 85.5397 506.351C95.5938 504.599 103.18 499.907 102.464 495.87C102.464 495.84 102.449 495.809 102.434 495.779C102.434 491.087 100.728 484.811 98.8995 478.169C97.4371 472.822 95.6243 466.149 95.8985 463.605C96.5536 457.512 108.268 442.872 125.436 426.466C147.022 439.536 177.033 452.546 203.387 460.025C199.167 465.342 194.917 470.826 194.368 476.31C193.744 482.617 201.086 487.05 214.401 493.311C207.713 495.55 203.28 499.069 203.828 502.192C204.529 506.229 213.243 508.087 223.297 506.351C233.351 504.614 240.937 499.907 240.221 495.87C240.008 494.606 239.003 493.57 237.434 492.778C235.149 491.209 231.34 489.396 224.577 486.288C218.773 483.638 208.414 478.885 205.276 476.158C206.296 473.477 209.556 469.379 212.024 466.256C212.923 465.129 213.791 464.017 214.629 462.92C235.926 467.81 253.307 468.099 259.324 460.422C259.629 460.041 259.842 459.614 260.04 459.172C261.442 455.973 264.458 448.478 268.632 438.424C277.361 440.389 284.856 441.41 291.025 441.41C302.405 441.41 309.428 438.059 311.987 431.341C316.405 419.794 303.197 404.743 286.851 396.121C292.016 384.665 297.637 372.737 303.426 361.312C305.223 357.778 307.036 354.259 308.864 350.831C310.814 347.16 315.887 346.642 318.522 349.871C375.054 418.834 487.325 388.382 499.345 295.107C502.879 265.325 491.926 234.172 471.132 212.861H471.178ZM107.598 398.497H107.552C107.613 398.329 107.644 398.192 107.705 398.055C107.705 398.177 107.659 398.329 107.598 398.497ZM302.055 427.547C301.186 429.817 294.087 432.971 272.837 428.446C275.731 421.561 279.006 413.913 282.54 405.885C296.327 413.274 303.471 423.846 302.055 427.547ZM313.602 319.648H313.586L313.571 319.678C309.077 327.539 303.974 337.349 298.642 348.059H298.612C286.059 373.209 272.227 403.555 262.295 425.841C257.42 424.501 251.982 422.84 245.949 420.799C245.934 420.799 245.919 420.769 245.904 420.753C245.462 418.742 243.07 415.559 239.612 412.634C235.027 408.749 230.304 406.799 229.055 408.262C228.4 409.039 228.872 410.623 230.122 412.512C220.022 409.419 211.11 410.044 209.632 414.172C208.033 418.636 215.711 425.491 226.801 429.482C234.021 432.087 240.892 432.818 245.264 431.798C249.697 433.26 253.932 434.57 257.923 435.697C254.709 442.979 252.149 448.829 250.519 452.561C249.712 454.419 248.036 455.76 246.025 456.019C219.58 459.431 124.903 421.104 109.426 400.675C108.283 399.167 108.024 397.202 108.619 395.405C113.813 379.805 122.1 348.698 129.306 320.806C129.306 320.806 136.587 293.218 139.147 283.087C144.143 266.742 144.509 243.114 139.512 226.053C138.553 222.762 141.097 219.502 144.524 219.67C149.429 219.914 155.629 219.944 159.59 218.939C163.185 218.025 166.659 220.843 166.75 224.545C167.253 246.481 172.767 258.211 183.979 264.67C188.534 267.031 194.079 267.641 198.862 265.614C198.862 265.614 198.862 265.599 198.893 265.614C207.347 262.111 214.248 251.432 217.721 236.777C218.605 233.015 222.886 231.126 226.283 232.969C231.142 235.604 236.413 237.707 241.73 239.093C245.051 239.961 246.863 243.45 245.736 246.679C231.416 287.977 271.709 309.807 304.065 285.022C306.427 283.209 309.793 283.423 311.911 285.51C315.932 289.455 320.411 292.715 325.271 295.244C329.018 297.194 329.475 302.282 326.169 304.902C321.051 308.954 316.526 314.194 313.632 319.694L313.602 319.648ZM178.556 211.124C178.678 209.662 179.379 208.321 180.43 207.316C182.791 205.031 184.893 202.517 186.721 199.805C189.311 195.967 195.069 196.591 196.928 200.826C199.502 206.737 202.914 212.266 207.088 217.248C208.094 218.451 208.612 219.959 208.505 221.513C207.637 233.487 203.006 251.402 194.521 254.905C193.18 254.936 191.931 254.951 190.59 254.981C181.069 251.859 176.515 236.579 178.571 211.124H178.556ZM299.739 268.204C300.836 270.626 300.242 273.536 298.14 275.151C298.14 275.151 298.109 275.166 298.109 275.181C297.332 275.821 296.525 276.415 295.687 276.979C267.855 296.143 242.796 274.069 259.172 244.059C260.147 242.261 261.975 241.119 264.016 240.951C271.831 240.296 279.463 238.285 286.532 235.041C290.584 233.182 295.169 236.244 294.849 240.692C294.179 249.939 295.763 259.399 299.754 268.189L299.739 268.204ZM470.386 338.659C442.173 378.008 380.69 387.91 342.926 356.985C337 352.156 327.875 343.778 321.767 334.988C320.426 333.054 320.396 330.51 321.645 328.514C323.869 324.98 326.078 321.628 328.241 318.551C328.424 318.292 328.622 318.048 328.835 317.82C336.132 310.005 347.268 306.715 355.494 308.299C360.43 309.289 365.152 306.41 366.584 301.657C369.357 294.772 363.446 287.749 356.134 288.983C340.184 291.664 324.082 285.205 313.998 270.367C301.628 252.224 304.172 228.231 318.827 213.028C322.909 208.93 321.386 201.755 316.039 199.668C312.505 198.252 308.3 199.425 306.107 202.791C293.95 221.224 266.499 237.371 237.647 225.733C210.76 214.887 199.761 194.139 203.097 168.561C203.524 165.362 201.802 162.285 198.817 161.082C194.521 159.315 189.814 162.27 189.219 166.672C185.228 193.133 166.354 210.621 144.478 208.869C136.176 208.58 128.773 202.913 124.918 197.901C119.693 192.204 110.172 193.56 110.218 201.314C111.361 210.682 119.739 210.378 126.198 222.732C126.29 222.915 126.381 223.098 126.457 223.28C130.387 232.238 132.094 244.242 131.682 256.931C130.875 271.281 129.839 272.972 126.579 286.545C125.97 289.089 123.745 290.902 121.141 291.039C68.3257 293.675 21.5282 249.391 20.6903 197.429C18.0549 136.388 76.4452 86.8789 136.024 99.4161C137.212 99.7055 138.553 100.01 139.878 100.33C143.549 101.198 147.114 98.4107 147.068 94.6328C146.855 75.0271 153.923 58.7577 166.948 42.8233C217.615 -16.2829 303.928 12.0667 319.619 84.472C320.518 88.6155 325.484 90.3826 328.866 87.8233C329.749 87.1531 330.587 86.4828 331.273 85.9039C347.573 72.1023 367.132 63.2668 388.657 62.9164C465.526 61.7587 503.031 152.779 454.436 206.112C452.715 207.818 451.862 211.185 454.528 213.302C490.768 241.576 500.563 300.042 470.416 338.614L470.386 338.659Z" fill="#032515"/>
<path d="M183.296 335.078C188.978 332.184 194.279 327.081 198.24 320.713C207.03 306.5 206.375 290.688 196.732 284.731C191.781 281.67 185.246 281.791 178.787 285.067C173.105 287.961 167.803 293.064 163.858 299.432C155.068 313.645 155.723 329.442 165.366 335.414C167.758 336.891 170.515 337.622 173.44 337.622C176.593 337.622 179.96 336.769 183.311 335.078H183.296ZM183.616 294.557C185.459 293.628 187.18 293.156 188.628 293.156C189.587 293.156 190.44 293.369 191.126 293.795C194.965 296.172 194.949 305.784 189.176 315.107C186.282 319.784 182.382 323.592 178.467 325.588C177.964 325.847 177.492 326.045 177.004 326.228C178.787 324.141 180.31 321.338 181.3 318.078C183.677 310.156 181.925 302.631 177.37 301.26C176.867 301.108 176.349 301.047 175.816 301.062C178.193 298.228 180.904 295.959 183.616 294.572V294.557Z" fill="#032515"/>
<path d="M269.105 315.78C264.413 312.338 257.878 311.957 251.19 314.714C245.295 317.152 239.613 321.828 235.18 327.876C225.309 341.358 224.73 357.17 233.87 363.873C236.49 365.792 239.689 366.767 243.162 366.767C245.904 366.767 248.829 366.158 251.784 364.939C257.68 362.502 263.362 357.825 267.795 351.777C272.228 345.73 274.97 338.89 275.518 332.537C276.143 325.332 273.797 319.223 269.105 315.78ZM264.901 331.623C264.52 335.995 262.448 341.038 259.203 345.471C255.958 349.904 251.769 353.407 247.717 355.083C247.214 355.296 246.742 355.418 246.27 355.555C248.189 353.621 249.911 350.955 251.129 347.817C254.115 340.109 252.957 332.461 248.509 330.74C248.022 330.542 247.504 330.45 246.971 330.42C249.56 327.785 252.44 325.728 255.258 324.555C256.918 323.87 258.472 323.519 259.797 323.519C261.001 323.519 262.021 323.809 262.798 324.372C264.428 325.56 265.19 328.211 264.901 331.623Z" fill="#032515"/>
<path d="M173.315 366.111C167.541 366.156 171.807 386.645 176.818 390.225C184.603 395.801 209.647 392.48 209.403 387.605C209.205 383.781 181.693 366.05 173.315 366.111Z" fill="#032515"/>
</svg>